<?xml version="1.0" encoding="UTF-8" standalone="no"?>
<!-- Created with Inkscape (http://www.inkscape.org/) -->

<svg
   xmlns:dc="http://purl.org/dc/elements/1.1/"
   xmlns:cc="http://creativecommons.org/ns#"
   xmlns:rdf="http://www.w3.org/1999/02/22-rdf-syntax-ns#"
   xmlns:svg="http://www.w3.org/2000/svg"
   xmlns="http://www.w3.org/2000/svg"
   xmlns:sodipodi="http://sodipodi.sourceforge.net/DTD/sodipodi-0.dtd"
   xmlns:inkscape="http://www.inkscape.org/namespaces/inkscape"
   version="1.1"
   width="256"
   height="256"
   id="svg2985"
   inkscape:version="0.48.5 r10040"
   sodipodi:docname="Icon.svg"
   inkscape:export-filename="E:\Eigene Dateien - Marius\Desktop\Icon.png"
   inkscape:export-xdpi="225.96007"
   inkscape:export-ydpi="225.96007">
  <sodipodi:namedview
     pagecolor="#ffffff"
     bordercolor="#666666"
     borderopacity="1"
     objecttolerance="10"
     gridtolerance="10"
     guidetolerance="10"
     inkscape:pageopacity="0"
     inkscape:pageshadow="2"
     inkscape:window-width="1920"
     inkscape:window-height="1017"
     id="namedview6"
     showgrid="false"
     inkscape:zoom="2.5752212"
     inkscape:cx="-16.362544"
     inkscape:cy="118.63058"
     inkscape:window-x="-8"
     inkscape:window-y="-8"
     inkscape:window-maximized="1"
     inkscape:current-layer="svg2985" />
  <metadata
     id="metadata2991">
    <rdf:RDF>
      <cc:Work
         rdf:about="">
        <dc:format>image/svg+xml</dc:format>
        <dc:type
           rdf:resource="http://purl.org/dc/dcmitype/StillImage" />
        <dc:title></dc:title>
      </cc:Work>
    </rdf:RDF>
  </metadata>
  <defs
     id="defs2989" />
  <path
     d="m 28.487877,240.53083 c -3.990487,-6.47202 -0.430253,-11.39058 25.263759,-34.90244 11.999124,-10.98007 35.907422,-34.0759 53.129554,-51.32407 29.64489,-29.6897 31.7364,-31.28679 39.26181,-29.98038 10.64408,1.8478 13.53952,4.67597 10.54334,10.29835 -1.33595,2.50695 -17.98112,19.34676 -36.98926,37.42178 -19.00815,18.07504 -43.820223,41.91311 -55.13795,52.97351 -21.715572,21.22179 -30.280374,24.90529 -36.071253,15.51325 z m 148.805393,-7.16545 c -6.84465,-6.67878 -21.67894,-20.75429 -32.9651,-31.27894 -11.28615,-10.52464 -20.52028,-20.97544 -20.52028,-23.22397 0,-6.13816 32.7564,-41.88671 42.54914,-46.4358 5.23156,-2.43028 20.99754,1.43278 20.99754,5.14492 0,1.27114 -7.74475,10.37096 -17.21056,20.22177 -9.46581,9.85082 -17.21056,19.13041 -17.21056,20.62131 0,1.49091 10.42563,12.46604 23.16806,24.3892 24.82893,23.23255 30.05735,30.89595 25.43036,37.27368 -5.38496,7.42254 -11.4836,5.73368 -24.2386,-6.71217 z M 156.83214,120.16589 c -21.52802,-6.59668 -21.62508,-6.67668 -25.27459,-20.83176 -4.80751,-18.646476 -5.84191,-19.313547 -16.8911,-10.892847 -9.01517,6.870567 -10.7941,7.298967 -30.310291,7.298967 -16.613343,0 -22.049676,0.89896 -27.359356,4.52424 -5.467293,3.73289 -9.076451,4.27236 -20.633772,3.08425 -17.707773,-1.82039 -24.365751,-7.09731 -23.250719,-18.427868 0.568478,-5.776824 2.943863,-9.634367 7.903064,-12.8344 7.033889,-4.538795 7.160233,-4.539669 15.886669,-0.111007 7.68847,3.901809 12.201255,4.304556 35.829484,3.197713 L 99.764626,73.906834 111.78626,63.660692 c 13.54853,-11.547533 15.09615,-16.183889 5.40219,-16.183889 -3.6407,0 -9.00245,-2.068438 -11.915,-4.596528 -11.296867,-9.805656 -3.02946,-27.579163 12.82851,-27.579163 10.01062,0 16.29705,6.497168 16.29705,16.843376 l 0,8.437524 27.21621,0 27.21622,0 17.05757,-14.938714 c 17.08169,-14.959835 22.65789,-17.33509 28.59601,-12.180797 6.87932,5.97121 3.03721,12.657894 -17.33582,30.170662 -19.78555,17.007772 -20.95952,17.633221 -33.09723,17.633221 -8.35819,0 -12.54874,0.964719 -12.47885,2.87283 0.0579,1.580056 3.47256,15.283453 7.58822,30.451993 4.11564,15.168543 6.97673,28.354823 6.35796,29.302863 -1.81384,2.77901 -11.60336,1.50681 -28.68716,-3.72808 z"
     id="path2995"
     style="fill:#000080"
     inkscape:connector-curvature="0" />
</svg>
